<?xml version="1.0" encoding="utf-8"?>
<!-- Generator: Adobe Illustrator 19.2.0, SVG Export Plug-In . SVG Version: 6.00 Build 0)  -->
<svg version="1.1" id="Add_user" xmlns="http://www.w3.org/2000/svg" xmlns:xlink="http://www.w3.org/1999/xlink" x="0px" y="0px"
	 viewBox="0 0 20 20" style="enable-background:new 0 0 20 20;" xml:space="preserve">
<style type="text/css">
	.st0{fill:#E4E6C3;}
</style>
<path class="st0" d="M16,19.1c0-2.1-2.2-3.4-4.3-4.3c-2.1-0.9-2.8-1.7-2.8-3.3c0-1,0.6-0.7,0.9-2.5c0.1-0.8,0.7,0,0.8-1.7
	c0-0.7-0.3-0.9-0.3-0.9s0.2-1,0.2-1.8c0.1-0.8-0.4-2.6-2.3-3.1C7.9,1.2,7.7,0.7,8.7,0.1C6.4,0,5.9,1.2,4.7,2c-1,0.8-1.3,2-1.2,2.6
	c0.1,0.8,0.2,1.8,0.2,1.8S3.4,6.6,3.4,7.3C3.5,9,4.1,8.3,4.2,9c0.3,1.8,0.9,1.5,0.9,2.5c0,1.6-0.2,2.2-2.3,3.1C0.7,15.5,0,17,0,19.1
	C0,19.8,0,20,0,20h16C16,20,16,19.8,16,19.1z M17,10V7h-2v3h-3v2h3v3h2v-3h3v-2H17z"/>
</svg>
