<?xml version="1.0" encoding="utf-8"?>
<!-- Generator: Adobe Illustrator 19.2.0, SVG Export Plug-In . SVG Version: 6.00 Build 0)  -->
<svg version="1.1" id="Grid" xmlns="http://www.w3.org/2000/svg" xmlns:xlink="http://www.w3.org/1999/xlink" x="0px" y="0px"
	 viewBox="0 0 20 20" style="enable-background:new 0 0 20 20;" xml:space="preserve">
<style type="text/css">
	.st0{fill:#E4E6C3;}
</style>
<path class="st0" d="M8,4H5C4.4,4,4,4.4,4,5v3c0,0.6,0.4,1,1,1h3c0.6,0,1-0.4,1-1V5C9,4.4,8.6,4,8,4z M15,4h-3c-0.6,0-1,0.4-1,1v3
	c0,0.6,0.4,1,1,1h3c0.6,0,1-0.4,1-1V5C16,4.4,15.6,4,15,4z M8,11H5c-0.6,0-1,0.4-1,1v3c0,0.6,0.4,1,1,1h3c0.6,0,1-0.4,1-1v-3
	C9,11.4,8.6,11,8,11z M15,11h-3c-0.6,0-1,0.4-1,1v3c0,0.6,0.4,1,1,1h3c0.6,0,1-0.4,1-1v-3C16,11.4,15.6,11,15,11z"/>
</svg>
